<?xml version="1.0" encoding="UTF-8" standalone="no"?>
<!DOCTYPE svg PUBLIC "-//W3C//DTD SVG 1.1//EN"
 "http://www.w3.org/Graphics/SVG/1.1/DTD/svg11.dtd">
<!-- Generated by graphviz version 2.38.0 (20140413.2041)
 -->
<!-- Title: %3 Pages: 1 -->
<svg width="883pt" height="231pt"
 viewBox="0.00 0.00 882.59 231.00" xmlns="http://www.w3.org/2000/svg" xmlns:xlink="http://www.w3.org/1999/xlink">
<g id="graph0" class="graph" transform="scale(1 1) rotate(0) translate(4 227)">
<title>%3</title>
<polygon fill="#333333" stroke="none" points="-4,4 -4,-227 878.587,-227 878.587,4 -4,4"/>
<text text-anchor="middle" x="437.293" y="-9.2" font-family="Times,serif" font-size="16.00" fill="white">Network Map</text>
<!-- R3 -->
<g id="node1" class="node"><title>R3</title>
<polygon fill="#006699" stroke="#006699" points="94.5865,-99 18.5865,-99 18.5865,-26 94.5865,-26 94.5865,-99"/>
<text text-anchor="middle" x="56.5865" y="-58.8" font-family="Helvetica,sans-Serif" font-size="14.00" fill="white">R3</text>
</g>
<!-- SW1 -->
<g id="node2" class="node"><title>SW1</title>
<polygon fill="#006699" stroke="#006699" points="285.087,-223 196.087,-223 196.087,-150 285.087,-150 285.087,-223"/>
<text text-anchor="middle" x="240.587" y="-182.8" font-family="Helvetica,sans-Serif" font-size="14.00" fill="white">SW1</text>
</g>
<!-- R3&#45;&#45;SW1 -->
<g id="edge5" class="edge"><title>R3&#45;&#45;SW1</title>
<path fill="none" stroke="green" stroke-dasharray="5,2" d="M58,-99.1715C60.129,-110.865 64.3809,-123.121 72.5865,-132 104.268,-166.283 157.821,-178.706 195.945,-183.148"/>
<text text-anchor="middle" x="122.587" y="-120.8" font-family="Courier,monospace" font-size="14.00" fill="white"> &#160;&#160;&#160;&#160;&#160;&#160;&#160;&#160;&#160;&#160;&#160;</text>
<text text-anchor="middle" x="166.945" y="-171.948" font-family="Courier,monospace" font-size="14.00" fill="white">Eth 0/3</text>
<text text-anchor="middle" x="29" y="-102.971" font-family="Courier,monospace" font-size="14.00" fill="white">Eth 0/0</text>
</g>
<!-- R5 -->
<g id="node3" class="node"><title>R5</title>
<polygon fill="#006699" stroke="#006699" points="586.587,-223 510.587,-223 510.587,-150 586.587,-150 586.587,-223"/>
<text text-anchor="middle" x="548.587" y="-182.8" font-family="Helvetica,sans-Serif" font-size="14.00" fill="white">R5</text>
</g>
<!-- R1 -->
<g id="node4" class="node"><title>R1</title>
<polygon fill="#006699" stroke="#006699" points="217.587,-99 141.587,-99 141.587,-26 217.587,-26 217.587,-99"/>
<text text-anchor="middle" x="179.587" y="-58.8" font-family="Helvetica,sans-Serif" font-size="14.00" fill="white">R1</text>
</g>
<!-- R1&#45;&#45;SW1 -->
<g id="edge1" class="edge"><title>R1&#45;&#45;SW1</title>
<path fill="none" stroke="green" stroke-dasharray="5,2" d="M174.695,-99.2117C174.601,-110.148 175.99,-121.939 180.587,-132 184.241,-139.997 189.73,-147.298 195.93,-153.762"/>
<text text-anchor="middle" x="230.587" y="-120.8" font-family="Courier,monospace" font-size="14.00" fill="white"> &#160;&#160;&#160;&#160;&#160;&#160;&#160;&#160;&#160;&#160;&#160;</text>
<text text-anchor="middle" x="166.93" y="-142.562" font-family="Courier,monospace" font-size="14.00" fill="white">Eth 0/1</text>
<text text-anchor="middle" x="145.695" y="-103.012" font-family="Courier,monospace" font-size="14.00" fill="white">Eth 0/0</text>
</g>
<!-- R4 -->
<g id="node5" class="node"><title>R4</title>
<polygon fill="#006699" stroke="#006699" points="401.587,-99 325.587,-99 325.587,-26 401.587,-26 401.587,-99"/>
<text text-anchor="middle" x="363.587" y="-58.8" font-family="Helvetica,sans-Serif" font-size="14.00" fill="white">R4</text>
</g>
<!-- R4&#45;&#45;SW1 -->
<g id="edge6" class="edge"><title>R4&#45;&#45;SW1</title>
<path fill="none" stroke="green" stroke-dasharray="5,2" d="M325.297,-96.6195C317.97,-103.242 310.448,-110.243 303.587,-117 293.11,-127.316 282.121,-138.954 272.308,-149.67"/>
<text text-anchor="middle" x="353.587" y="-120.8" font-family="Courier,monospace" font-size="14.00" fill="white"> &#160;&#160;&#160;&#160;&#160;&#160;&#160;&#160;&#160;&#160;&#160;</text>
<text text-anchor="middle" x="243.308" y="-138.47" font-family="Courier,monospace" font-size="14.00" fill="white">Eth 0/4</text>
<text text-anchor="middle" x="296.297" y="-85.4195" font-family="Courier,monospace" font-size="14.00" fill="white">Eth 0/0</text>
</g>
<!-- R4&#45;&#45;R5 -->
<g id="edge7" class="edge"><title>R4&#45;&#45;R5</title>
<path fill="none" stroke="green" stroke-dasharray="5,2" d="M391.234,-99.0535C401.449,-110.601 413.702,-122.797 426.587,-132 452.276,-150.349 485.255,-164.341 510.447,-173.405"/>
<text text-anchor="middle" x="476.587" y="-120.8" font-family="Courier,monospace" font-size="14.00" fill="white"> &#160;&#160;&#160;&#160;&#160;&#160;&#160;&#160;&#160;&#160;&#160;</text>
<text text-anchor="middle" x="481.447" y="-162.205" font-family="Courier,monospace" font-size="14.00" fill="white">Eth 0/1</text>
<text text-anchor="middle" x="362.234" y="-102.853" font-family="Courier,monospace" font-size="14.00" fill="white">Eth 0/1</text>
</g>
<!-- R6 -->
<g id="node6" class="node"><title>R6</title>
<polygon fill="#006699" stroke="#006699" points="832.587,-223 756.587,-223 756.587,-150 832.587,-150 832.587,-223"/>
<text text-anchor="middle" x="794.587" y="-182.8" font-family="Helvetica,sans-Serif" font-size="14.00" fill="white">R6</text>
</g>
<!-- R2 -->
<g id="node7" class="node"><title>R2</title>
<polygon fill="#006699" stroke="#006699" points="709.587,-99 633.587,-99 633.587,-26 709.587,-26 709.587,-99"/>
<text text-anchor="middle" x="671.587" y="-58.8" font-family="Helvetica,sans-Serif" font-size="14.00" fill="white">R2</text>
</g>
<!-- R2&#45;&#45;SW1 -->
<g id="edge2" class="edge"><title>R2&#45;&#45;SW1</title>
<path fill="none" stroke="green" stroke-dasharray="5,2" d="M633.378,-76.6745C607.713,-86.2479 573.597,-100.403 545.587,-117 536.331,-122.484 536.381,-127.548 526.587,-132 446.57,-168.369 343.201,-180.015 285.19,-183.744"/>
<text text-anchor="middle" x="595.587" y="-120.8" font-family="Courier,monospace" font-size="14.00" fill="white"> &#160;&#160;&#160;&#160;&#160;&#160;&#160;&#160;&#160;&#160;&#160;</text>
<text text-anchor="middle" x="314.19" y="-172.544" font-family="Courier,monospace" font-size="14.00" fill="white">Eth 0/2</text>
<text text-anchor="middle" x="604.378" y="-65.4745" font-family="Courier,monospace" font-size="14.00" fill="white">Eth 0/0</text>
</g>
<!-- R2&#45;&#45;R5 -->
<g id="edge3" class="edge"><title>R2&#45;&#45;R5</title>
<path fill="none" stroke="green" stroke-dasharray="5,2" d="M665.672,-99.1998C662.409,-110.627 657.366,-122.712 649.587,-132 633.278,-151.472 608.028,-164.847 586.855,-173.354"/>
<text text-anchor="middle" x="709.587" y="-120.8" font-family="Courier,monospace" font-size="14.00" fill="white"> &#160;&#160;&#160;&#160;&#160;&#160;&#160;&#160;&#160;&#160;&#160;</text>
<text text-anchor="middle" x="615.855" y="-162.154" font-family="Courier,monospace" font-size="14.00" fill="white">Eth 0/0</text>
<text text-anchor="middle" x="636.672" y="-103" font-family="Courier,monospace" font-size="14.00" fill="white">Eth 0/1</text>
</g>
<!-- R2&#45;&#45;R6 -->
<g id="edge4" class="edge"><title>R2&#45;&#45;R6</title>
<path fill="none" stroke="green" stroke-dasharray="5,2" d="M709.769,-79.0469C727.935,-87.9747 748.85,-100.682 763.587,-117 772.073,-126.397 778.579,-138.507 783.387,-149.926"/>
<text text-anchor="middle" x="824.587" y="-120.8" font-family="Courier,monospace" font-size="14.00" fill="white"> &#160;&#160;&#160;&#160;&#160;&#160;&#160;&#160;&#160;&#160;&#160;</text>
<text text-anchor="middle" x="754.387" y="-138.726" font-family="Courier,monospace" font-size="14.00" fill="white">Eth 0/1</text>
<text text-anchor="middle" x="738.769" y="-67.8469" font-family="Courier,monospace" font-size="14.00" fill="white">Eth 0/2</text>
</g>
</g>
</svg>
